<svg width="120" height="120" viewBox="0 0 120 120" fill="none" xmlns="http://www.w3.org/2000/svg">
<path d="M98.1022 46.0001H85.9998V26.0002C86 11.6639 74.3359 0 59.9999 0C45.6638 0 33.9999 11.6639 33.9999 25.9999V45.9998H21.8982C18.6463 45.9998 16.0002 48.6459 16.0002 51.8979V105.992C16.0002 105.994 15.9997 105.997 15.9997 106C15.9997 106.003 16.0002 106.005 16.0002 106.008V114.102C16.0002 117.354 18.6463 120 21.8982 120H98.1022C101.354 120 104 117.354 104 114.102V51.8979C104 48.6459 101.354 46.0001 98.1022 46.0001ZM38 25.9999C38 13.8698 47.87 3.99984 60.0001 3.99984C72.1302 3.99984 82.0002 13.8698 82.0002 25.9999V45.9998H78.0001V25.9999C78.0001 16.076 69.9261 7.99992 60.0001 7.99992C50.0741 7.99992 42.0001 16.076 42.0001 25.9999V45.9998H38V25.9999ZM45.9999 46.0001V26.0002C45.9999 18.2801 52.2819 12.0002 59.9999 12.0002C67.7178 12.0002 73.9998 18.2803 73.9998 26.0002V46.0001H45.9999ZM21.8982 49.9999H35.9999H43.9998H75.9997H83.9996H98.102C99.148 49.9999 99.9999 50.8519 99.9999 51.8979V104H20.0002V51.8979C20.0002 50.8521 20.8522 49.9999 21.8982 49.9999ZM98.1022 116H21.8982C20.8522 116 20.0002 115.148 20.0002 114.102V108H100V114.102C100 115.148 99.1482 116 98.1022 116Z" fill="url(#paint0_linear)"/>
<path d="M30.5858 75.414C30.9758 75.804 31.4879 75.9999 31.9998 75.9999C32.5117 75.9999 33.0238 75.804 33.4138 75.414L35.9999 72.8279L38.586 75.414C38.976 75.804 39.4881 75.9999 40 75.9999C40.5121 75.9999 41.024 75.804 41.414 75.414C42.1961 74.6319 42.1961 73.3679 41.414 72.586L38.8279 69.9999L41.414 67.4138C42.1961 66.6317 42.1961 65.3677 41.414 64.5858C40.6321 63.8037 39.3679 63.8037 38.586 64.5858L35.9999 67.1719L33.4138 64.5858C32.6317 63.8037 31.3677 63.8037 30.5858 64.5858C29.804 65.3677 29.804 66.6319 30.5858 67.4138L33.1719 69.9999L30.5858 72.586C29.804 73.3681 29.804 74.6321 30.5858 75.414Z" fill="url(#paint1_linear)"/>
<path d="M46.5858 75.414C46.9758 75.804 47.488 75.9999 47.9998 75.9999C48.5119 75.9999 49.0238 75.804 49.4138 75.414L51.9999 72.8279L54.586 75.414C54.976 75.804 55.4881 75.9999 56 75.9999C56.5121 75.9999 57.024 75.804 57.414 75.414C58.1959 74.6319 58.1959 73.3679 57.414 72.586L54.8279 69.9999L57.414 67.4138C58.1959 66.6317 58.1959 65.3677 57.414 64.5858C56.6319 63.8037 55.3679 63.8037 54.586 64.5858L51.9999 67.1719L49.4138 64.5858C48.6317 63.8037 47.3677 63.8037 46.5858 64.5858C45.8037 65.3677 45.8037 66.6319 46.5858 67.4138L49.1719 69.9999L46.5858 72.586C45.804 73.3681 45.804 74.6321 46.5858 75.414Z" fill="url(#paint2_linear)"/>
<path d="M62.586 75.414C62.976 75.804 63.4881 75.9999 64 75.9999C64.5121 75.9999 65.024 75.804 65.414 75.414L68.0001 72.8279L70.5862 75.414C70.9762 75.804 71.4883 75.9999 72.0002 75.9999C72.5123 75.9999 73.0242 75.804 73.4142 75.414C74.196 74.6319 74.196 73.3679 73.4142 72.586L70.8281 69.9999L73.4142 67.4138C74.196 66.6317 74.196 65.3677 73.4142 64.5858C72.632 63.8037 71.3681 63.8037 70.5862 64.5858L68.0001 67.1719L65.414 64.5858C64.6319 63.8037 63.3679 63.8037 62.586 64.5858C61.8039 65.3677 61.8039 66.6319 62.586 67.4138L65.1721 69.9999L62.586 72.586C61.8039 73.3681 61.8039 74.6321 62.586 75.414Z" fill="url(#paint3_linear)"/>
<path d="M78.5858 75.414C78.9758 75.804 79.4879 75.9999 79.9998 75.9999C80.5119 75.9999 81.0238 75.804 81.4138 75.414L83.9998 72.8279L86.5859 75.414C86.9759 75.804 87.4881 75.9999 87.9999 75.9999C88.512 75.9999 89.0239 75.804 89.4139 75.414C90.196 74.6319 90.196 73.3679 89.4139 72.586L86.8278 69.9999L89.4139 67.4138C90.196 66.6317 90.196 65.3677 89.4139 64.5858C88.6318 63.8037 87.3678 63.8037 86.5859 64.5858L83.9998 67.1719L81.4138 64.5858C80.6319 63.8037 79.3677 63.8037 78.5858 64.5858C77.8037 65.3677 77.8037 66.6319 78.5858 67.4138L81.1719 69.9999L78.5858 72.586C77.8039 73.3681 77.8039 74.6321 78.5858 75.414Z" fill="url(#paint4_linear)"/>
<path d="M29.9999 88C29.9999 89.104 30.8938 90 31.9999 90H87.9998C89.1058 90 89.9997 89.104 89.9997 88C89.9997 86.8961 89.1058 86.0001 87.9998 86.0001H31.9999C30.8941 85.9999 29.9999 86.8959 29.9999 88Z" fill="url(#paint5_linear)"/>
<defs>
<linearGradient id="paint0_linear" x1="60" y1="0" x2="60" y2="120" gradientUnits="userSpaceOnUse">
<stop stop-color="#FFCB12"/>
<stop offset="1" stop-color="#FF8726"/>
</linearGradient>
<linearGradient id="paint1_linear" x1="36" y1="63.9993" x2="36" y2="75.9999" gradientUnits="userSpaceOnUse">
<stop stop-color="#FFCB12"/>
<stop offset="1" stop-color="#FF8726"/>
</linearGradient>
<linearGradient id="paint2_linear" x1="51.9998" y1="63.9993" x2="51.9998" y2="75.9999" gradientUnits="userSpaceOnUse">
<stop stop-color="#FFCB12"/>
<stop offset="1" stop-color="#FF8726"/>
</linearGradient>
<linearGradient id="paint3_linear" x1="68" y1="63.9993" x2="68" y2="75.9999" gradientUnits="userSpaceOnUse">
<stop stop-color="#FFCB12"/>
<stop offset="1" stop-color="#FF8726"/>
</linearGradient>
<linearGradient id="paint4_linear" x1="83.9999" y1="63.9993" x2="83.9999" y2="75.9999" gradientUnits="userSpaceOnUse">
<stop stop-color="#FFCB12"/>
<stop offset="1" stop-color="#FF8726"/>
</linearGradient>
<linearGradient id="paint5_linear" x1="59.9998" y1="86.0001" x2="59.9998" y2="90" gradientUnits="userSpaceOnUse">
<stop stop-color="#FFCB12"/>
<stop offset="1" stop-color="#FF8726"/>
</linearGradient>
</defs>
</svg>
