<svg width="120" height="120" viewBox="0 0 120 120" fill="none" xmlns="http://www.w3.org/2000/svg">
<path d="M114.713 73.3125C114.362 72.3549 113.818 71.4797 113.115 70.741C112.412 70.0024 111.564 69.4162 110.625 69.0187V16.875C110.621 15.3845 110.027 13.9564 108.973 12.9024C107.919 11.8485 106.491 11.2545 105 11.25H45C43.5095 11.2545 42.0814 11.8485 41.0275 12.9024C39.9735 13.9564 39.3795 15.3845 39.375 16.875V69.4312C37.2477 70.3982 35.214 71.5594 33.3 72.9L27.4125 77.025L25.2563 73.95C24.9702 73.5456 24.5366 73.2698 24.0491 73.1821C23.5616 73.0945 23.0591 73.2019 22.65 73.4812L4.21877 86.3812C3.8131 86.6708 3.5369 87.1076 3.44929 87.5982C3.36168 88.0888 3.46963 88.5942 3.75002 89.0062L23.1188 116.644C23.4027 117.051 23.8364 117.329 24.325 117.417C24.8136 117.505 25.317 117.395 25.725 117.112L44.1563 104.212C44.5612 103.922 44.8367 103.486 44.9243 102.995C45.0119 102.505 44.9045 102 44.625 101.587L43.5563 100.069C47.1742 97.597 51.6192 96.6474 55.9313 97.425L59.2688 97.9875C63.4852 98.7365 67.8246 98.3614 71.85 96.9L110.231 82.9312C111.157 82.5943 112.008 82.0781 112.734 81.4122C113.461 80.7464 114.049 79.9439 114.465 79.0506C114.881 78.1573 115.118 77.1907 115.16 76.2061C115.202 75.2216 115.05 74.2383 114.713 73.3125ZM84.375 15H105C105.497 15 105.974 15.1975 106.326 15.5492C106.677 15.9008 106.875 16.3777 106.875 16.875V22.5H84.375V15ZM69.375 15H80.625V31.1062L76.3313 26.7937C75.9773 26.4425 75.4987 26.2453 75 26.2453C74.5013 26.2453 74.0228 26.4425 73.6688 26.7937L69.375 31.1062V15ZM43.125 16.875C43.125 16.3777 43.3226 15.9008 43.6742 15.5492C44.0258 15.1975 44.5027 15 45 15H65.625V22.5H43.125V16.875ZM43.125 26.25H65.625V35.625C65.6236 35.9959 65.7337 36.3587 65.941 36.6663C66.1483 36.9739 66.4432 37.2121 66.7875 37.35C67.129 37.4936 67.5053 37.5328 67.8691 37.4627C68.2328 37.3927 68.5676 37.2164 68.8313 36.9562L75 30.7687L81.1688 36.9562C81.5234 37.306 82.0019 37.5014 82.5 37.5C82.746 37.5065 82.9901 37.4551 83.2125 37.35C83.5569 37.2121 83.8518 36.9739 84.0591 36.6663C84.2664 36.3587 84.3764 35.9959 84.375 35.625V26.25H106.875V68.4562C106.274 68.5071 105.682 68.6331 105.113 68.8312L98.475 71.25H85.2938C84.3045 70.4054 83.1065 69.842 81.825 69.6187L62.9813 66.3C56.8928 65.2231 50.6364 65.5957 44.7188 67.3875L44.3813 67.5C43.95 67.6125 43.5375 67.7812 43.125 67.9312V26.25ZM25.1063 112.969L7.91252 88.3875L23.2688 77.625L40.4625 102.206L25.1063 112.969ZM111.375 76.5375C111.259 77.186 110.975 77.7925 110.55 78.2962C110.126 78.7998 109.576 79.1826 108.956 79.4062L70.575 93.375C67.1677 94.6129 63.494 94.9298 59.925 94.2937L56.5688 93.7312C51.2802 92.7791 45.8295 93.9514 41.4 96.9937L29.5688 80.0812L35.4563 75.975C38.4939 73.8296 41.8551 72.1838 45.4125 71.1L45.75 71.0062C51.1256 69.3755 56.8077 69.0224 62.3438 69.975L81.1688 73.2937C82.153 73.475 83.0276 74.0334 83.6063 74.85C83.9344 75.3324 84.1462 75.8844 84.225 76.4625C84.321 76.9874 84.2888 77.5277 84.1313 78.0375C83.8727 78.9344 83.2903 79.7034 82.4969 80.1953C81.7036 80.6872 80.7559 80.8671 79.8375 80.7L59.5688 77.1188L58.9313 80.7937L79.1813 84.375C79.6192 84.465 80.0654 84.509 80.5125 84.5062C82.1269 84.5047 83.698 83.9846 84.9943 83.0225C86.2906 82.0604 87.2435 80.7072 87.7125 79.1625L106.388 72.3562C107.322 72.0185 108.353 72.0658 109.253 72.4877C110.153 72.9096 110.849 73.6716 111.188 74.6062C111.428 75.2202 111.492 75.8888 111.375 76.5375Z" fill="url(#paint0_linear)"/>
<defs>
<linearGradient id="paint0_linear" x1="59.2932" y1="11.25" x2="59.2932" y2="117.446" gradientUnits="userSpaceOnUse">
<stop stop-color="#FFCB12"/>
<stop offset="1" stop-color="#FF8726"/>
</linearGradient>
</defs>
</svg>
