<svg width="120" height="120" viewBox="0 0 120 120" fill="none" xmlns="http://www.w3.org/2000/svg">
<g clip-path="url(#clip0)">
<path d="M93.2297 51.2926C92.8871 50.9366 92.4355 50.705 91.9466 50.6341V50.7008L71.257 47.6975L62.0022 28.8543C61.4541 27.7547 60.1185 27.3076 59.0186 27.8557C58.5862 28.0712 58.2355 28.4219 58.02 28.8543L48.7653 47.6085L28.0757 50.6118C26.8599 50.7881 26.017 51.9169 26.1936 53.1329C26.2645 53.6218 26.4961 54.0734 26.8521 54.416L41.8243 69.01L38.287 89.6107C38.0857 90.8229 38.9049 91.9686 40.1168 92.1699C40.594 92.2492 41.084 92.1708 41.5128 91.9466L60 82.247L78.5095 91.9689C79.5982 92.5384 80.9424 92.1174 81.512 91.0289C81.7361 90.6004 81.8145 90.1101 81.7353 89.633L78.198 69.0323L93.1702 54.4383C94.0554 53.5862 94.082 52.1777 93.2297 51.2926ZM74.2603 66.6741C73.7378 67.1816 73.4967 67.913 73.6151 68.6318L76.574 85.9622L61.0011 77.7753C60.3535 77.4352 59.5798 77.4352 58.9322 77.7753L43.3593 85.9622L46.3181 68.6318C46.4366 67.913 46.1955 67.1816 45.673 66.6741L33.0812 54.416L50.4783 51.8799C51.2019 51.7712 51.8257 51.3137 52.1468 50.6563L60 34.95L67.7864 50.7008C68.1076 51.3582 68.7314 51.8156 69.455 51.9244L86.8521 54.4605L74.2603 66.6741Z" fill="url(#paint0_linear)"/>
<path d="M119.555 57.1748L109.922 45.2727L111.368 30.167C111.44 29.2048 110.883 28.3064 109.989 27.9423L95.8845 22.1804L89.5664 8.38727C89.1537 7.49489 88.2038 6.97904 87.2304 7.1192L72.2138 9.34389L59.8445 0.445113C59.0536 -0.148046 57.9657 -0.148046 57.1748 0.445113L45.2727 10.078L30.167 8.63199C29.1993 8.56414 28.2988 9.13115 27.9423 10.0335L22.1804 24.1159L8.38728 30.434C7.4949 30.8467 6.97905 31.7966 7.1192 32.7699L9.3439 47.7866L0.445121 60.1559C-0.148038 60.9468 -0.148038 62.0347 0.445121 62.8255L9.85558 74.7277L8.40953 89.8333C8.34167 90.8011 8.90869 91.7015 9.81108 92.058L24.1159 97.82L30.434 111.613C30.8467 112.505 31.7966 113.021 32.7699 112.881L47.7866 110.656L60.1559 119.555C60.9468 120.148 62.0347 120.148 62.8256 119.555L74.7277 110.145L89.8333 111.591C90.7955 111.662 91.694 111.105 92.058 110.212L97.82 95.8845L111.613 89.5664C112.505 89.1537 113.021 88.2037 112.881 87.2304L110.656 72.2138L119.555 59.8445C120.148 59.0536 120.148 57.966 119.555 57.1748ZM106.452 70.3673C106.126 70.8333 105.99 71.4065 106.074 71.969L108.143 86.2071L95.0391 92.1915C94.5208 92.4315 94.1145 92.8617 93.9045 93.3928L88.5875 106.741L74.2605 105.384C73.6935 105.332 73.1284 105.499 72.6809 105.851L61.3795 114.75L49.6554 106.407C49.2797 106.135 48.8286 105.988 48.365 105.985H48.0536L33.8155 108.054L27.8311 94.9724C27.5911 94.454 27.1609 94.0477 26.6298 93.8378L13.2816 88.5208L14.6387 74.1937C14.6907 73.6267 14.5235 73.0616 14.1715 72.6142L5.27271 61.3127L13.6153 49.5886C13.9415 49.1225 14.0769 48.5494 13.9935 47.9868L11.9245 33.7488L25.028 27.7644C25.5463 27.5244 25.9526 27.0942 26.1626 26.563L31.4796 13.2149L45.8066 14.5719C46.3737 14.6239 46.9387 14.4568 47.3862 14.1047L58.6876 5.20596L70.4118 13.5486C70.8778 13.8748 71.451 14.0102 72.0135 13.9268L86.2516 11.8578L92.236 24.9612C92.476 25.4796 92.9062 25.8859 93.4373 26.0958L106.786 31.4129L105.428 45.7399C105.376 46.3069 105.544 46.872 105.896 47.3194L114.794 58.6209L106.452 70.3673Z" fill="url(#paint1_linear)"/>
</g>
<defs>
<linearGradient id="paint0_linear" x1="60.011" y1="27.6216" x2="60.011" y2="92.2227" gradientUnits="userSpaceOnUse">
<stop stop-color="#FFCB12"/>
<stop offset="1" stop-color="#FF8726"/>
</linearGradient>
<linearGradient id="paint1_linear" x1="60.0002" y1="0.000244141" x2="60.0002" y2="120" gradientUnits="userSpaceOnUse">
<stop stop-color="#FFCB12"/>
<stop offset="1" stop-color="#FF8726"/>
</linearGradient>
<clipPath id="clip0">
<rect width="120" height="120" fill="white"/>
</clipPath>
</defs>
</svg>
