<svg width="120" height="108" viewBox="0 0 120 108" fill="none" xmlns="http://www.w3.org/2000/svg">
<path d="M117.45 61.3609H116.24C115.673 52.5234 110.955 44.7974 104.018 40.1196C104.135 39.8271 104.201 39.5087 104.201 39.1745V6.91704C104.201 3.25502 101.222 0.275757 97.5596 0.275757H6.64128C2.97926 0.275757 0 3.25502 0 6.91704V63.779C0 67.4411 2.97926 70.4203 6.64128 70.4203H57.0714V102.162C57.0714 105.229 59.5666 107.724 62.6335 107.724H114.438C117.505 107.724 120 105.229 120 102.162V63.9112C120 62.5027 118.858 61.3609 117.45 61.3609ZM111.128 61.3609H107.576C106.668 51.6524 98.4772 44.0276 88.5356 44.0276C78.5939 44.0276 70.4028 51.6526 69.4951 61.3609H65.9436C66.861 49.7001 76.643 40.4919 88.5356 40.4919C100.428 40.4919 110.21 49.6998 111.128 61.3609ZM102.443 61.3609H74.6278C75.5119 54.4713 81.4095 49.1283 88.5356 49.1283C95.6617 49.1283 101.559 54.4711 102.443 61.3609ZM5.10065 17.3668H99.1002V26.7552H5.10065V17.3668ZM6.64128 5.3764H97.5593C98.409 5.3764 99.1 6.06742 99.1 6.91704V12.2662H5.10065V6.91704C5.10065 6.06742 5.79191 5.3764 6.64128 5.3764ZM6.64128 65.3199C5.79166 65.3199 5.10065 64.6287 5.10065 63.7793V31.8558H99.1002V37.4816C95.8419 36.136 92.2743 35.3913 88.5356 35.3913C73.8297 35.3913 61.7596 46.885 60.8315 61.3609H59.6215C58.213 61.3609 57.0711 62.5027 57.0711 63.9112V65.3199H6.64128ZM114.899 102.162C114.899 102.416 114.692 102.623 114.438 102.623H62.6335C62.379 102.623 62.172 102.416 62.172 102.162V66.4615H114.899V102.162Z" fill="url(#paint0_linear)"/>
<path d="M82.4842 88.9816V94.1949C82.4842 97.5317 85.199 100.246 88.5358 100.246C91.8726 100.246 94.5871 97.5317 94.5871 94.1949V88.9816C97.6269 86.9688 99.517 83.5309 99.517 79.8198C99.517 73.7646 94.5908 68.8384 88.5358 68.8384C82.4806 68.8384 77.5544 73.7646 77.5544 79.8198C77.5544 83.5309 79.4443 86.9688 82.4842 88.9816ZM88.5358 73.9393C91.7784 73.9393 94.4164 76.5773 94.4164 79.8201C94.4164 82.1146 93.0659 84.2146 90.9763 85.1702C90.0687 85.585 89.4865 86.4915 89.4865 87.4895V94.1949C89.4865 94.7191 89.06 95.1456 88.5358 95.1456C88.0114 95.1456 87.5849 94.7191 87.5849 94.1949V87.4893C87.5849 86.4912 87.0027 85.585 86.095 85.1699C84.0052 84.2144 82.655 82.1144 82.655 79.8201C82.655 76.5773 85.293 73.9393 88.5358 73.9393Z" fill="url(#paint1_linear)"/>
<defs>
<linearGradient id="paint0_linear" x1="59.9999" y1="0.275757" x2="59.9999" y2="107.724" gradientUnits="userSpaceOnUse">
<stop stop-color="#FFCB12"/>
<stop offset="1" stop-color="#FF8726"/>
</linearGradient>
<linearGradient id="paint1_linear" x1="88.5357" y1="68.8384" x2="88.5357" y2="100.246" gradientUnits="userSpaceOnUse">
<stop stop-color="#FFCB12"/>
<stop offset="1" stop-color="#FF8726"/>
</linearGradient>
</defs>
</svg>
