<svg width="29" height="38" viewBox="0 0 29 38" fill="none" xmlns="http://www.w3.org/2000/svg">
<path fill-rule="evenodd" clip-rule="evenodd" d="M10.7248 8.70764C11.8273 7.67282 13.2732 7.08154 14.7849 7.04722C16.2967 7.01291 17.7678 7.53797 18.9162 8.52169C19.0878 8.67027 19.2495 8.82984 19.4004 8.99939C20.0664 9.85115 20.5143 10.8527 20.7052 11.9169C20.8472 12.0044 21.0035 12.0663 21.1669 12.0996C21.2846 12.1224 21.4065 12.1026 21.511 12.0439C21.6155 11.9852 21.6957 11.8914 21.7376 11.779C21.7376 11.779 21.2823 11.8913 21.1669 11.654C21.0515 11.4168 21.1893 9.86503 21.3753 9.57648C22.0165 8.56658 23.6901 12.4619 23.7798 13.5744C23.7798 13.5744 23.3919 13.7155 22.5647 13.3019C23.331 14.097 23.7574 14.1676 24.7064 14.3663C25.4341 14.5138 25.4438 14.1547 25.4598 13.5744C25.4598 13.2314 25.4598 12.805 25.4598 12.3497C25.8317 12.4267 26.0529 12.3497 26.0241 11.981C25.9215 10.612 25.7035 10.2433 25.3828 9.22061C24.0459 5.21946 21.3528 1.68959 17.8518 0L18.9643 2.14164C10.9492 -2.2218 3.60733 4.28008 3.67786 4.2352C4.03373 3.97871 6.64026 3.64849 6.64026 3.64849C-1.06389 7.24568 0.0518143 14.174 0.0614324 14.1387C0.164026 13.6225 1.77988 11.6925 1.77988 11.6925C1.64843 18.4252 9.2051 23.0676 9.06403 22.9778C8.86846 22.8463 6.79735 21.4229 5.97981 17.8866C6.43291 18.5103 6.95447 19.0814 7.53474 19.589C8.93626 20.7849 10.6056 21.6251 12.4012 22.0381C14.1967 22.4511 16.0654 22.4248 17.8486 21.9615C11.2666 20.9067 5.52776 13.7636 10.7248 8.70764ZM25.0077 11.4103C24.947 10.8149 24.8212 10.2279 24.6326 9.65984C24.6326 9.71114 24.1581 10.1247 24.3794 10.6377C24.5169 10.95 24.739 11.2176 25.0206 11.4103H25.0077Z" fill="#48D1EC"/>
<path fill-rule="evenodd" clip-rule="evenodd" d="M17.8486 21.955C11.2666 20.9066 5.52776 13.7635 10.7248 8.70758C11.8274 7.67276 13.2732 7.08148 14.7849 7.04716C16.2967 7.01285 17.7678 7.53791 18.9162 8.52163L19.1054 8.68834C12.9081 1.9941 6.98011 6.41205 6.98652 6.41205C7.96757 6.19724 11.1063 6.33189 10.7472 6.55311C7.62773 7.61111 3.98886 10.4998 5.41235 15.7801C5.52667 14.6152 6.00704 13.5164 6.78454 12.6414C8.33306 19.7396 13.4115 21.5574 17.8486 21.939V21.955Z" fill="#387EB6"/>
<path fill-rule="evenodd" clip-rule="evenodd" d="M17.5729 28.5692C16.4711 29.6027 15.0267 30.1935 13.5165 30.2284C12.0062 30.2633 10.5362 29.7399 9.3878 28.7584C9.21468 28.6045 9.05117 28.4378 8.90048 28.2807C8.23601 27.426 7.78929 26.4225 7.59883 25.3568C7.45785 25.2709 7.30254 25.2112 7.14036 25.1804C7.02377 25.1564 6.90243 25.1736 6.79714 25.2291C6.69185 25.2847 6.60917 25.3752 6.56327 25.485C6.56327 25.485 7.01853 25.3728 7.14036 25.6069C7.26219 25.8409 7.1115 27.399 6.92876 27.6844C6.28755 28.6975 4.61399 24.7989 4.52742 23.6896C4.52742 23.6896 4.91536 23.5454 5.73931 23.9557C4.97627 23.1638 4.54987 23.0933 3.59767 22.8977C2.88593 22.7631 2.86348 23.1029 2.84425 23.6896C2.84425 24.0327 2.84425 24.4591 2.84425 24.9111C2.46914 24.831 2.24471 24.9111 2.27677 25.283C2.37937 26.6456 2.59738 27.0207 2.91799 28.0402C4.25491 32.0606 6.94158 35.5873 10.4426 37.2801L9.3333 35.1385C17.3484 39.4987 24.6871 32.9968 24.6166 33.0449C24.2607 33.2982 21.6574 33.6252 21.6574 33.6252C29.3519 30.0312 28.2394 23.1029 28.233 23.1414C28.1272 23.6576 26.5145 25.5876 26.5145 25.5876C26.6428 18.8549 19.0893 14.2125 19.2272 14.3023C19.426 14.4338 21.4971 15.8572 22.3178 19.3935C21.8632 18.7709 21.3394 18.202 20.7565 17.6975C19.355 16.5015 17.6857 15.6611 15.8903 15.2475C14.0948 14.8339 12.2261 14.8594 10.4426 15.3218C17.0246 16.3734 22.7635 23.5165 17.5729 28.5692ZM3.28989 25.8665C3.23859 26.1615 3.64897 27.6619 3.665 27.6138C3.68103 27.5658 4.13629 27.1554 3.91827 26.652C3.77957 26.3405 3.55772 26.0731 3.27706 25.8794L3.28989 25.8665Z" fill="#FFCB12"/>
<path fill-rule="evenodd" clip-rule="evenodd" d="M10.4426 15.3218C17.0247 16.3734 22.7635 23.5165 17.5729 28.5692C16.4711 29.6027 15.0268 30.1935 13.5165 30.2284C12.0063 30.2633 10.5362 29.7399 9.38786 28.7584C9.32373 28.7006 9.26282 28.6461 9.2019 28.5852C15.3896 35.2827 21.3144 30.8583 21.3048 30.8615C20.3269 31.0763 17.185 30.9417 17.5505 30.7172C20.67 29.656 24.3024 26.7706 22.8853 21.4806C22.7682 22.6448 22.2882 23.7428 21.5132 24.6193C19.9614 17.534 14.883 15.7097 10.4426 15.3218Z" fill="#FF8726"/>
</svg>
